Coordinates
version=1
nRows=32
nColumns=12
inDegrees=yes

Units are S.I. units (second, meters, Newtons, ...)
Angles are in degrees

endheader
time	SC_y	SC_z	SC_x	AC_y	AC_z	AC_x	GH_y	GH_z	GH_yy	EL_x	PS_y
       0.0              -17.72         -3.721          25.83          46.88         -18.93          10.04         -149.8          78.69          -3.35          77.25          140.1
    0.0409              -17.72         -3.721          25.82          46.88         -18.93          10.04         -149.8          78.68         -3.326          77.24          140.1
    0.0818              -17.72         -3.721          25.82          46.88         -18.93          10.03         -149.7          78.68           -3.3          77.23          140.1
    0.1227              -17.72          -3.72          25.82          46.88         -18.92          10.03         -149.7          78.67         -3.272          77.21          140.0
    0.1636              -17.72          -3.72          25.81          46.88         -18.92          10.03         -149.6          78.67         -3.243           77.2          140.0
    0.2045              -17.72          -3.72          25.81          46.88         -18.92          10.02         -149.6          78.66         -3.212          77.19          140.0
    0.2454              -17.72         -3.719          25.81          46.88         -18.91          10.02         -149.5          78.66         -3.178          77.17          140.0
    0.2863              -17.72         -3.719           25.8          46.89         -18.91          10.01         -149.5          78.65         -3.143          77.16          139.9
    0.3272              -17.72         -3.718           25.8          46.89          -18.9          10.01         -149.4          78.65         -3.104          77.14          139.9
    0.3681              -17.72         -3.718          25.79          46.89          -18.9           10.0         -149.3          78.64         -3.063          77.12          139.9
     0.409              -17.72         -3.717          25.79          46.89         -18.89          9.999         -149.3          78.63         -3.019           77.1          139.9
    0.4499              -17.72         -3.717          25.78           46.9         -18.89          9.994         -149.2          78.62         -2.972          77.08          139.8
    0.4908              -17.72         -3.716          25.78           46.9         -18.88          9.988         -149.1          78.61         -2.921          77.06          139.8
    0.5317              -17.72         -3.715          25.77           46.9         -18.88          9.981         -149.0          78.61         -2.866          77.04          139.7
    0.5726              -17.72         -3.715          25.77          46.91         -18.87          9.974         -148.9           78.6         -2.806          77.01          139.7
    0.6135              -17.71         -3.714          25.76          46.91         -18.86          9.966         -148.8          78.58         -2.741          76.98          139.7
    0.6544              -17.71         -3.713          25.75          46.91         -18.85          9.957         -148.7          78.57         -2.671          76.95          139.6
    0.6953              -17.71         -3.712          25.74          46.92         -18.84          9.948         -148.6          78.56         -2.594          76.92          139.5
    0.7362              -17.71         -3.711          25.73          46.92         -18.83          9.938         -148.4          78.55          -2.51          76.88          139.5
    0.7771              -17.71          -3.71          25.72          46.93         -18.82          9.927         -148.3          78.53         -2.418          76.85          139.4
     0.818              -17.71         -3.709          25.71          46.93         -18.81          9.915         -148.1          78.51         -2.318           76.8          139.3
    0.8589              -17.71         -3.708           25.7          46.94          -18.8          9.901         -147.9          78.49         -2.207          76.75          139.3
    0.8998              -17.71         -3.706          25.69          46.95         -18.78          9.886         -147.7          78.47         -2.085           76.7          139.2
    0.9407              -17.71         -3.705          25.67          46.95         -18.76           9.87         -147.5          78.45         -1.949          76.64          139.1
    0.9816              -17.71         -3.703          25.66          46.96         -18.75          9.852         -147.2          78.42         -1.798          76.58          139.0
     1.022              -17.71         -3.701          25.64          46.97         -18.73          9.831         -147.0           78.4          -1.63          76.51          138.8
     1.063              -17.71         -3.699          25.62          46.98          -18.7          9.809         -146.6          78.36         -1.441          76.42          138.7
     1.104               -17.7         -3.696           25.6          46.99         -18.68          9.783         -146.3          78.33         -1.229          76.33          138.6
     1.145               -17.7         -3.693          25.57          47.01         -18.65          9.754         -145.9          78.29        -0.9898          76.23          138.4
     1.186               -17.7          -3.69          25.54          47.02         -18.62          9.721         -145.4          78.24        -0.7177          76.11          138.2
     1.227               -17.7         -3.686          25.51          47.04         -18.58          9.683         -144.9          78.19        -0.4073          75.98          138.0
     1.268               -17.7         -3.682          25.47          47.06         -18.53           9.64         -144.3          78.13       -0.05099          75.83          137.7
